
        <svg xmlns="http://www.w3.org/2000/svg" xmlns:xlink="http://www.w3.org/1999/xlink" version="1.1" width="3161.8429685791352" height="973.6181847738512" viewBox="0 0 3161.8429685791352 973.6181847738512">
			
			<g transform="scale(8.09214842895677) translate(10, 10)">
				<defs id="SvgjsDefs2145"><linearGradient id="SvgjsLinearGradient2152"><stop id="SvgjsStop2153" stop-color="#fe8dc6" offset="0"/><stop id="SvgjsStop2154" stop-color="#fed1c7" offset="1"/></linearGradient></defs><g id="SvgjsG2146" featureKey="LwVBM5-0" transform="matrix(-1.0944141965583518,0,0,1.0944141965583518,118.01800608150018,-3.0619602723104364)" fill="#000"><path xmlns="http://www.w3.org/2000/svg" fill-rule="evenodd" clip-rule="evenodd" d="M46.58,5.539l-3.109,4.353c2.699,0.925-0.395,5.934-1.865,8.395  C27.835,41.32,13.727,75.184,6.783,80.78l4.042,13.68c4.56-17.929,39.59-20.313,78.972-12.747l3.42-5.907  C80.884,59.638,68.24,41.916,57.151,23.572c-1.07-1.525,0.414-3.731,0.622-5.596c-1.743,1.62-9.703,0.431-4.975,11.504  c8.395,14.406,17.722,28.189,27.049,41.351c-20.935-2.384-36.895-1.658-56.275,1.244c9.617-18.161,18.613-36.011,26.986-54.483  C52.355,11.417,49.552,8.052,46.58,5.539L46.58,5.539z"/></g><g id="SvgjsG2147" featureKey="nameFeature-0" transform="matrix(1.954274605554673,0,0,1.954274605554673,114.06487981743611,14.36991832736066)" fill="#000"><path d="M6.582 20.19531 c-3.1445 0 -5.7031 -1.5137 -6.1035 -4.3945 l3.8574 -0.87891 c0.10742 1.5625 1.084 2.2949 2.4023 2.2949 c0.95703 0 1.543 -0.45898 1.543 -1.2793 c0 -1.0742 -1.377 -1.4746 -2.9785 -2.0215 c-2.0215 -0.67383 -4.2871 -1.5137 -4.2871 -4.1602 c0 -2.6758 2.168 -4.3164 5.2637 -4.3164 c2.5195 0 5.2637 0.99609 5.8594 3.9648 l-3.5742 0.87891 c-0.20508 -1.2988 -0.88867 -1.8652 -2.041 -1.8652 c-1.0254 0 -1.748 0.40039 -1.748 1.2402 c0 0.80078 1.2891 1.123 2.7637 1.6016 c2.0605 0.68359 4.5996 1.6211 4.5996 4.4629 c0 3.1543 -2.6563 4.4727 -5.5566 4.4727 z M22.969248046875002 5.645 l3.7207 0 l0 14.355 l-3.7207 0 l0 -5.5957 l-5.293 0 l0 5.5957 l-3.7207 0 l0 -14.355 l3.7207 0 l0 5.5566 l5.293 0 l0 -5.5566 z M38.12619921875 8.877 l-5 0 l0 2.3438 l4.4531 0 l0 3.2031 l-4.4531 0 l0 2.3145 l5 0 l0 3.2617 l-8.7207 0 l0 -14.355 l8.7207 0 l0 3.2324 z M52.317087890625004 20 l-4.4141 0 l-3.7402 -6.1523 l0 6.1523 l-3.7207 0 l0 -14.355 l5.498 0 c3.4375 0 4.8047 1.9727 4.8047 4.4336 c0 2.0215 -1.1914 3.2031 -2.9102 3.5742 z M47.199487890625 10.1172 c0 -0.87891 -0.49805 -1.4355 -1.875 -1.4355 l-1.1621 0 l0 2.8809 l1.1621 0 c1.377 0 1.875 -0.56641 1.875 -1.4453 z M59.7490015625 5.645 c2.9395 0 4.7363 2.1582 4.7363 4.7949 c0 2.7051 -1.7969 4.6973 -4.7363 4.6973 l-2.5977 0 l0 4.8633 l-3.7207 0 l0 -14.355 l6.3184 0 z M59.1045015625 12.060500000000001 c1.3281 0 1.8457 -0.625 1.8457 -1.6797 c0 -0.99609 -0.51758 -1.6602 -1.8457 -1.6602 l-1.9531 0 l0 3.3398 l1.9531 0 z M75.902255859375 20 l-0.92773 -2.6563 l-5.7422 0 l-0.91797 2.6563 l-3.7793 0 l5.2832 -14.355 l4.5801 0 l5.2832 14.355 l-3.7793 0 z M70.296655859375 14.2773 l3.6133 0 l-1.8066 -5.1953 z M90.79550390625 5.645 l3.7207 0 l0 14.355 l-4.4238 0 l-5.4785 -9.3164 l0 9.3164 l-3.7207 0 l0 -14.355 l4.375 0 l5.5273 9.2676 l0 -9.2676 z M105.942361328125 8.877 l-5 0 l0 2.3438 l4.4531 0 l0 3.2031 l-4.4531 0 l0 2.3145 l5 0 l0 3.2617 l-8.7207 0 l0 -14.355 l8.7207 0 l0 3.2324 z M116.97825 8.877 l-5 0 l0 2.3438 l4.4531 0 l0 3.2031 l-4.4531 0 l0 2.3145 l5 0 l0 3.2617 l-8.7207 0 l0 -14.355 l8.7207 0 l0 3.2324 z M131.169138671875 20 l-4.4141 0 l-3.7402 -6.1523 l0 6.1523 l-3.7207 0 l0 -14.355 l5.498 0 c3.4375 0 4.8047 1.9727 4.8047 4.4336 c0 2.0215 -1.1914 3.2031 -2.9102 3.5742 z M126.051538671875 10.1172 c0 -0.87891 -0.49805 -1.4355 -1.875 -1.4355 l-1.1621 0 l0 2.8809 l1.1621 0 c1.377 0 1.875 -0.56641 1.875 -1.4453 z"/></g><g id="SvgjsG2148" featureKey="duLK5n-0" transform="matrix(0.5546914073204275,0,0,0.5546914073204275,120.11160641216038,61.98280536681799)" fill="#000"><path d="M5.3223 16.7383 l4.1992 0 l0 3.2617 l-7.9199 0 l0 -14.355 l3.7207 0 l0 11.094 z M26.97190234375 8.877 l-5 0 l0 2.3438 l4.4531 0 l0 3.2031 l-4.4531 0 l0 2.3145 l5 0 l0 3.2617 l-8.7207 0 l0 -14.355 l8.7207 0 l0 3.2324 z M46.4640234375 20 l-0.92773 -2.6563 l-5.7422 0 l-0.91797 2.6563 l-3.7793 0 l5.2832 -14.355 l4.5801 0 l5.2832 14.355 l-3.7793 0 z M40.8584234375 14.2773 l3.6133 0 l-1.8066 -5.1953 z M58.76810390625 20 l0 -14.355 l5.5566 0 c4.6973 0 6.9824 2.8125 6.9824 7.1777 c0 4.3555 -2.2852 7.1777 -6.9824 7.1777 l-5.5566 0 z M62.48880390625 16.7383 l1.6406 0 c2.2559 0 3.2617 -1.2988 3.2617 -3.916 c0 -2.627 -1.0059 -3.9453 -3.2617 -3.9453 l-1.6406 0 l0 7.8613 z M80.4375375 20 l0 -14.355 l3.7207 0 l0 14.355 l-3.7207 0 z M104.08944921875 5.645 l3.7207 0 l0 14.355 l-4.4238 0 l-5.4785 -9.3164 l0 9.3164 l-3.7207 0 l0 -14.355 l4.375 0 l5.5273 9.2676 l0 -9.2676 z M124.1084390625 20.19531 c-4.2188 0 -7.2363 -2.9395 -7.2363 -7.334 c0 -4.4824 3.1152 -7.4219 7.4512 -7.4219 c2.8809 0 5.2051 1.2793 6.4648 3.3984 l-3.2617 1.7383 c-0.63477 -1.3184 -1.7773 -1.9531 -3.2031 -1.9531 c-2.1582 0 -3.7402 1.4941 -3.7402 4.1406 c0 2.4805 1.4063 4.2578 3.8867 4.2578 c1.377 0 2.9004 -0.55664 3.3594 -2.1777 l-3.3398 0 l0 -2.9395 l6.8164 0 l0 8.0957 l-2.8809 0 l0 -1.543 c-0.89844 1.0645 -2.2754 1.7383 -4.3164 1.7383 z M161.656265625 5.645 l0 3.2324 l-3.2422 0 l0 11.123 l-3.6816 0 l0 -11.123 l-3.252 0 l0 -3.2324 l10.176 0 z M179.38013671875 5.645 l3.7207 0 l0 14.355 l-3.7207 0 l0 -5.5957 l-5.293 0 l0 5.5957 l-3.7207 0 l0 -14.355 l3.7207 0 l0 5.5566 l5.293 0 l0 -5.5566 z M201.8503203125 8.877 l-5 0 l0 2.3438 l4.4531 0 l0 3.2031 l-4.4531 0 l0 2.3145 l5 0 l0 3.2617 l-8.7207 0 l0 -14.355 l8.7207 0 l0 3.2324 z M225.6777375 20 l-3.5156 -14.355 l3.8574 0 l2.4219 10.254 l2.959 -10.254 l3.0957 0 l2.9395 10.254 l2.4414 -10.254 l3.8574 0 l-3.5156 14.355 l-4.9219 0 l-2.3633 -7.4805 l-2.334 7.4805 l-4.9219 0 z M262.28873046875 20 l-0.92773 -2.6563 l-5.7422 0 l-0.91797 2.6563 l-3.7793 0 l5.2832 -14.355 l4.5801 0 l5.2832 14.355 l-3.7793 0 z M256.68313046875 14.2773 l3.6133 0 l-1.8066 -5.1953 z M286.1752109375 5.645 l-4.7266 7.4902 l0 6.8652 l-3.7207 0 l0 -6.8066 l-4.7559 -7.5488 l4.082 0 l2.5195 4.2383 l2.5391 -4.2383 l4.0625 0 z M315.51995312500003 8.877 l-5.1953 0 l0 2.3438 l4.4531 0 l0 3.2031 l-4.4531 0 l0 5.5762 l-3.7207 0 l0 -14.355 l8.916 0 l0 3.2324 z M331.04638359375 20.19531 c-4.3359 0 -7.4512 -2.9395 -7.4512 -7.373 c0 -4.4629 3.1152 -7.3828 7.4512 -7.3828 c4.3457 0 7.4609 2.9199 7.4609 7.3828 c0 4.4336 -3.1152 7.373 -7.4609 7.373 z M331.04638359375 16.8164 c2.168 0 3.7891 -1.5332 3.7891 -3.9941 s-1.6211 -4.0039 -3.7891 -4.0039 c-2.1582 0 -3.7598 1.543 -3.7598 4.0039 s1.6016 3.9941 3.7598 3.9941 z M359.4545390625 20 l-4.4141 0 l-3.7402 -6.1523 l0 6.1523 l-3.7207 0 l0 -14.355 l5.498 0 c3.4375 0 4.8047 1.9727 4.8047 4.4336 c0 2.0215 -1.1914 3.2031 -2.9102 3.5742 z M354.3369390625 10.1172 c0 -0.87891 -0.49805 -1.4355 -1.875 -1.4355 l-1.1621 0 l0 2.8809 l1.1621 0 c1.377 0 1.875 -0.56641 1.875 -1.4453 z M370.05908515625 20 l-3.5156 -14.355 l3.8574 0 l2.4219 10.254 l2.959 -10.254 l3.0957 0 l2.9395 10.254 l2.4414 -10.254 l3.8574 0 l-3.5156 14.355 l-4.9219 0 l-2.3633 -7.4805 l-2.334 7.4805 l-4.9219 0 z M406.670078125 20 l-0.92773 -2.6563 l-5.7422 0 l-0.91797 2.6563 l-3.7793 0 l5.2832 -14.355 l4.5801 0 l5.2832 14.355 l-3.7793 0 z M401.064478125 14.2773 l3.6133 0 l-1.8066 -5.1953 z M430.84955859375 20 l-4.4141 0 l-3.7402 -6.1523 l0 6.1523 l-3.7207 0 l0 -14.355 l5.498 0 c3.4375 0 4.8047 1.9727 4.8047 4.4336 c0 2.0215 -1.1914 3.2031 -2.9102 3.5742 z M425.73195859375 10.1172 c0 -0.87891 -0.49805 -1.4355 -1.875 -1.4355 l-1.1621 0 l0 2.8809 l1.1621 0 c1.377 0 1.875 -0.56641 1.875 -1.4453 z M439.2764046875 20 l0 -14.355 l5.5566 0 c4.6973 0 6.9824 2.8125 6.9824 7.1777 c0 4.3555 -2.2852 7.1777 -6.9824 7.1777 l-5.5566 0 z M442.9971046875 16.7383 l1.6406 0 c2.2559 0 3.2617 -1.2988 3.2617 -3.916 c0 -2.627 -1.0059 -3.9453 -3.2617 -3.9453 l-1.6406 0 l0 7.8613 z"/></g>
			</g>
		</svg>
	